<?xml version="1.0" encoding="UTF-8"?>
<svg id="stroke" xmlns="http://www.w3.org/2000/svg" version="1.1" viewBox="0 0 83.1 15.2">
  <defs>
    <style>
      .cls-1 {
        fill: #a32f35;
      }

      .cls-1, .cls-2 {
        stroke-width: 0px;
      }

      .cls-2 {
        fill: #fff;
      }
    </style>
  </defs>
  <path class="cls-2" d="M0,15.2c0-.5,0-1.3.4-2.1,2.9-5.6,19-.3,38.3.8,19.4,1.1,42.9-2,44.1-8.5.3-2-1.4-3.9-2.9-5.3"/>
  <path class="cls-1" d="M0,15.2c-.3-8.2,16.1-4.1,21-3.7,7.8,1.1,15.5,2,23.4,2.1,7.1.2,36.5-.7,38.2-8.7,0-1.9-1.4-3.6-2.7-4.9,1.5,1.3,3.1,2.8,3.2,4.9-.8,9.2-31.3,9.8-38.7,9.7-7.9,0-15.7-1.1-23.5-2.1-3.9-.5-7.8-1.1-11.6-1.3-3.4-.3-9.1-.6-9.2,4.1h0Z"/>
</svg>